<?xml version="1.0" encoding="UTF-8" standalone="no"?>
<!DOCTYPE svg PUBLIC "-//W3C//DTD SVG 1.1//EN" "http://www.w3.org/Graphics/SVG/1.1/DTD/svg11.dtd">
<svg width="100%" height="100%" viewBox="0 0 147 163" version="1.1" xmlns="http://www.w3.org/2000/svg" xmlns:xlink="http://www.w3.org/1999/xlink" xml:space="preserve" xmlns:serif="http://www.serif.com/" style="fill-rule:evenodd;clip-rule:evenodd;stroke-linejoin:round;stroke-miterlimit:1.41421;">
    <g transform="matrix(1,0,0,1,-466.784,-224.293)">
        <g id="A-_logo" serif:id="A _logo" transform="matrix(5.85246,0.334726,-0.334726,5.85246,-3099.09,-1743.73)">
            <g transform="matrix(1,0,0,1,-210.184,-56)">
                <path d="M850.093,355.897L850.111,355.912L850.129,355.93L850.147,355.948L850.165,355.966L850.183,355.985L850.2,356.004L850.217,356.024L850.234,356.044L850.25,356.064L850.266,356.086L850.282,356.107L850.297,356.129L850.312,356.152L850.327,356.174L850.342,356.198L850.356,356.222L850.37,356.246L850.384,356.27L850.397,356.295L850.411,356.321L850.424,356.347L850.436,356.373L850.449,356.4L850.461,356.427L850.473,356.454L850.485,356.482L850.496,356.511L850.507,356.539L850.518,356.568L850.529,356.598L850.54,356.628L850.55,356.658L850.56,356.689L850.57,356.72L850.579,356.752L850.589,356.783L850.598,356.816L850.607,356.848L850.615,356.882L850.624,356.915L850.632,356.949L850.64,356.983L850.648,357.018L850.656,357.053L850.663,357.088L850.67,357.124L850.677,357.16L850.684,357.196L850.69,357.233L850.697,357.27L850.703,357.308L850.709,357.346L850.714,357.384L850.72,357.423L850.725,357.462L850.73,357.501L850.735,357.541L850.74,357.581L850.744,357.622L850.748,357.663L850.752,357.704L850.756,357.745L850.76,357.787L850.763,357.83L850.766,357.872L850.77,357.915L850.772,357.958L850.775,358.002L850.778,358.046L850.78,358.09L850.782,358.135L850.784,358.18L850.785,358.225L850.787,358.271L850.788,358.317L850.789,358.363L850.79,358.41L850.791,358.457L850.792,358.504L850.792,358.552L850.792,358.599L850.792,358.648L850.792,358.696L850.791,358.745L850.791,358.794L850.79,358.844L850.789,358.893L850.788,358.944L850.787,358.994L850.785,359.045L850.783,359.096L850.782,359.147L850.78,359.198L850.777,359.25L850.775,359.303L850.772,359.355L850.769,359.408L850.766,359.461L850.763,359.514L850.76,359.568L850.756,359.622L850.753,359.676L850.749,359.73L850.745,359.785L850.741,359.84L850.736,359.895L850.732,359.951L850.727,360.007L850.722,360.063L850.717,360.119L850.711,360.176L850.706,360.232L850.7,360.29L850.694,360.347L850.688,360.405L850.682,360.462L850.676,360.521L850.669,360.579L850.663,360.638L850.656,360.696L850.649,360.755L850.642,360.815L850.634,360.874L850.627,360.934L850.619,360.994L850.611,361.055L850.603,361.115L850.595,361.176L850.587,361.237L850.578,361.298L850.569,361.359L850.56,361.421L850.551,361.483L850.542,361.545L850.533,361.607L850.523,361.67L850.513,361.732L850.504,361.795L850.494,361.859L850.483,361.922L850.462,362.049L850.441,362.177L850.419,362.306L850.396,362.436L850.372,362.566L850.348,362.697L850.323,362.829L850.298,362.961L850.272,363.094L850.245,363.228L850.218,363.363L850.215,363.38L850.19,363.498L850.162,363.634L850.132,363.77L850.103,363.907L850.072,364.044L850.041,364.182L850.009,364.321L849.977,364.46L849.944,364.599L849.911,364.74L849.877,364.88L849.842,365.021L849.807,365.162L849.772,365.304L849.735,365.447L849.698,365.589L849.661,365.732L849.623,365.876L849.584,366.019L849.545,366.163L849.506,366.308L849.465,366.452L849.424,366.597L849.383,366.743L849.341,366.888L849.299,367.034L849.256,367.179L849.212,367.326L849.168,367.472L849.124,367.618L849.079,367.765L849.033,367.911L848.987,368.058L848.94,368.205L848.893,368.352L848.846,368.499L848.797,368.646L848.749,368.793L848.7,368.941L848.65,369.088L848.6,369.235L848.549,369.382L848.535,369.422L848.498,369.529L848.446,369.676L848.394,369.823L848.341,369.97L848.288,370.116L848.234,370.263L848.18,370.409L848.126,370.555L848.071,370.701L848.015,370.847L847.959,370.993L847.903,371.138L847.846,371.283L847.789,371.428L847.76,371.501L847.731,371.573L847.702,371.645L847.673,371.717L847.643,371.789L847.614,371.861L847.584,371.933L847.555,372.005L847.527,372.073L847.525,372.077L847.495,372.148L847.465,372.22L847.435,372.291L847.405,372.363L847.375,372.434L847.344,372.505L847.314,372.576L847.283,372.647L847.252,372.718L847.221,372.789L847.19,372.859L847.159,372.93L847.128,373L847.097,373.07L847.066,373.141L847.034,373.211L847.003,373.281L846.971,373.35L846.939,373.42L846.907,373.49L846.875,373.559L846.843,373.628L846.811,373.697L846.779,373.767L846.746,373.835L846.714,373.904L846.681,373.973L846.649,374.041L846.616,374.11L846.593,374.158L846.583,374.178L846.55,374.246L846.517,374.314L846.483,374.381L846.45,374.449L846.416,374.516L846.383,374.583L846.349,374.65L846.315,374.717L846.282,374.784L846.248,374.85L846.214,374.917L846.179,374.983L846.145,375.049L846.111,375.115L846.076,375.181L846.042,375.246L846.007,375.311L845.973,375.377L845.938,375.441L845.903,375.506L845.868,375.571L845.854,375.596L845.833,375.635L845.798,375.699L845.762,375.763L845.727,375.827L845.691,375.89L845.656,375.954L845.62,376.017L845.584,376.08L845.548,376.143L845.513,376.205L845.476,376.267L845.44,376.329L845.404,376.391L845.368,376.453L845.332,376.514L845.295,376.576L845.259,376.637L845.222,376.697L845.185,376.758L845.149,376.818L845.112,376.878L845.075,376.938L845.038,376.998L845.001,377.057L844.995,377.065L844.963,377.116L844.926,377.175L844.889,377.234L844.851,377.292L844.814,377.35L844.776,377.408L844.738,377.465L844.7,377.523L844.662,377.58L844.625,377.636L844.586,377.693L844.548,377.749L844.51,377.805L844.472,377.861L844.434,377.917L844.395,377.972L844.357,378.027L844.318,378.081L844.279,378.136L844.241,378.19L844.202,378.244L844.163,378.297L844.124,378.351L844.085,378.404L844.046,378.456L844.007,378.509L843.968,378.561L843.929,378.613L843.889,378.664L843.85,378.715L843.81,378.766L843.771,378.817L843.731,378.867L843.692,378.917L843.652,378.967L843.612,379.016L843.572,379.065L843.532,379.114L843.492,379.163L843.452,379.211L843.412,379.258L843.372,379.306L843.331,379.353L843.291,379.4L843.251,379.446L843.21,379.493L843.17,379.538L843.129,379.584L843.088,379.629L843.048,379.674L843.007,379.718L842.966,379.763L842.941,379.789L842.925,379.806L842.884,379.85L842.843,379.893L842.802,379.936L842.761,379.978L842.719,380.02L842.678,380.061L842.636,380.103L842.595,380.144L842.553,380.184L842.512,380.224L842.47,380.264L842.428,380.304L842.387,380.343L842.345,380.381L842.303,380.42L842.261,380.458L842.219,380.495L842.177,380.532L842.135,380.569L842.093,380.605L842.05,380.641L842.008,380.677L841.966,380.712L841.923,380.747L841.881,380.782L841.838,380.816L841.796,380.849L841.753,380.882L841.71,380.915L841.667,380.948L841.625,380.98L841.582,381.011L841.539,381.042L841.496,381.073L841.453,381.103L841.41,381.133L841.366,381.163L841.323,381.192L841.28,381.22L841.237,381.249L841.193,381.276L841.15,381.304L841.106,381.331L841.063,381.357L841.019,381.383L840.976,381.409L840.932,381.434L840.888,381.458L840.844,381.483L840.8,381.506L840.756,381.53L840.713,381.552L840.668,381.575L840.624,381.597L840.58,381.618L840.559,381.628L840.536,381.639L840.492,381.659L840.448,381.679L840.403,381.699L840.359,381.718L840.314,381.736L840.27,381.755L840.225,381.772L840.181,381.789L840.136,381.806L840.091,381.822L840.047,381.837L840.002,381.852L839.957,381.867L839.912,381.881L839.867,381.895L839.822,381.908L839.777,381.92L839.732,381.932L839.687,381.944L839.642,381.955L839.597,381.965L839.552,381.975L839.507,381.984L839.461,381.993L839.416,382.001L839.393,382.005L839.371,382.009L839.348,382.013L839.325,382.016L839.303,382.02L839.28,382.023L839.257,382.026L839.234,382.029L839.212,382.032L839.189,382.035L839.166,382.037L839.143,382.04L839.121,382.042L839.098,382.044L839.075,382.046L839.052,382.048L839.03,382.05L839.007,382.051L838.984,382.053L838.961,382.054L838.938,382.055L838.916,382.056L838.893,382.057L838.87,382.058L838.847,382.059L838.824,382.059L838.802,382.059L838.779,382.06L838.756,382.06L838.733,382.06L838.71,382.059L838.687,382.059L838.664,382.058L838.642,382.058L838.639,382.058L838.619,382.057L838.596,382.056L838.573,382.055L838.55,382.053L838.527,382.052L838.505,382.05L838.336,381.86L838.527,381.691L838.548,381.692L838.569,381.693L838.59,381.694L838.61,381.695L838.631,381.695L838.651,381.696L838.672,381.696L838.692,381.696L838.713,381.696L838.734,381.696L838.754,381.696L838.775,381.696L838.795,381.695L838.816,381.695L838.836,381.694L838.857,381.693L838.877,381.692L838.898,381.691L838.918,381.69L838.939,381.689L838.959,381.687L838.98,381.686L839,381.684L839.021,381.682L839.042,381.68L839.062,381.678L839.083,381.676L839.103,381.673L839.124,381.671L839.144,381.668L839.164,381.666L839.185,381.663L839.205,381.66L839.226,381.657L839.246,381.653L839.267,381.65L839.287,381.647L839.308,381.643L839.328,381.639L839.349,381.636L839.39,381.627L839.431,381.619L839.472,381.61L839.513,381.6L839.553,381.59L839.594,381.58L839.635,381.569L839.676,381.557L839.717,381.545L839.758,381.533L839.799,381.52L839.84,381.507L839.88,381.493L839.921,381.478L839.962,381.464L840.003,381.448L840.044,381.433L840.085,381.416L840.125,381.4L840.166,381.382L840.207,381.365L840.248,381.347L840.289,381.328L840.329,381.309L840.37,381.29L840.391,381.28L840.411,381.27L840.452,381.249L840.492,381.229L840.533,381.207L840.574,381.186L840.614,381.163L840.655,381.141L840.696,381.118L840.736,381.094L840.777,381.07L840.818,381.046L840.858,381.021L840.899,380.996L840.939,380.97L840.98,380.944L841.02,380.917L841.061,380.89L841.101,380.863L841.142,380.835L841.182,380.807L841.223,380.778L841.263,380.749L841.303,380.719L841.344,380.689L841.384,380.659L841.424,380.628L841.465,380.597L841.505,380.565L841.545,380.533L841.585,380.501L841.625,380.468L841.666,380.435L841.706,380.401L841.746,380.367L841.786,380.333L841.826,380.298L841.866,380.262L841.906,380.227L841.946,380.191L841.985,380.154L842.025,380.117L842.065,380.08L842.105,380.043L842.144,380.005L842.184,379.966L842.224,379.928L842.263,379.889L842.303,379.849L842.342,379.809L842.382,379.769L842.421,379.728L842.461,379.688L842.5,379.646L842.539,379.605L842.579,379.563L842.618,379.52L842.633,379.503L842.657,379.477L842.696,379.434L842.735,379.391L842.774,379.347L842.813,379.303L842.852,379.259L842.891,379.214L842.93,379.169L842.969,379.124L843.008,379.078L843.047,379.032L843.085,378.985L843.124,378.939L843.163,378.891L843.201,378.844L843.24,378.796L843.278,378.748L843.317,378.7L843.355,378.651L843.393,378.602L843.431,378.553L843.47,378.503L843.508,378.453L843.546,378.403L843.584,378.352L843.622,378.301L843.66,378.25L843.697,378.199L843.735,378.147L843.773,378.095L843.81,378.043L843.848,377.99L843.886,377.937L843.923,377.884L843.96,377.83L843.998,377.776L844.035,377.722L844.072,377.668L844.109,377.613L844.146,377.558L844.183,377.503L844.22,377.448L844.257,377.392L844.294,377.336L844.331,377.28L844.367,377.223L844.404,377.167L844.44,377.11L844.477,377.052L844.513,376.995L844.549,376.937L844.586,376.879L844.617,376.829L844.622,376.821L844.658,376.762L844.694,376.704L844.73,376.645L844.766,376.585L844.802,376.526L844.838,376.466L844.874,376.406L844.909,376.346L844.945,376.286L844.981,376.225L845.016,376.165L845.051,376.104L845.087,376.042L845.122,375.981L845.157,375.919L845.192,375.857L845.227,375.795L845.262,375.733L845.297,375.67L845.332,375.608L845.366,375.545L845.401,375.482L845.435,375.418L845.457,375.379L845.47,375.355L845.504,375.291L845.539,375.227L845.573,375.163L845.607,375.099L845.641,375.035L845.676,374.97L845.709,374.905L845.743,374.84L845.777,374.775L845.811,374.71L845.844,374.644L845.878,374.578L845.911,374.513L845.945,374.447L845.978,374.38L846.011,374.314L846.044,374.248L846.077,374.181L846.11,374.114L846.143,374.047L846.176,373.98L846.186,373.96L846.209,373.913L846.241,373.845L846.274,373.778L846.306,373.71L846.339,373.642L846.371,373.574L846.403,373.506L846.436,373.438L846.468,373.37L846.5,373.301L846.532,373.233L846.563,373.164L846.595,373.095L846.627,373.026L846.658,372.957L846.689,372.887L846.721,372.818L846.752,372.749L846.783,372.679L846.814,372.609L846.845,372.539L846.876,372.469L846.906,372.399L846.937,372.329L846.967,372.259L846.998,372.189L847.028,372.118L847.058,372.047L847.088,371.977L847.118,371.906L847.12,371.903L847.148,371.835L847.178,371.764L847.208,371.693L847.237,371.622L847.267,371.551L847.296,371.48L847.326,371.409L847.355,371.337L847.384,371.266L847.442,371.123L847.499,370.979L847.556,370.836L847.613,370.692L847.669,370.548L847.725,370.403L847.78,370.259L847.835,370.114L847.889,369.969L847.943,369.824L847.996,369.679L848.049,369.534L848.102,369.388L848.139,369.283L848.154,369.243L848.205,369.098L848.256,368.952L848.307,368.807L848.357,368.661L848.407,368.516L848.456,368.37L848.505,368.225L848.553,368.079L848.6,367.934L848.647,367.789L848.694,367.644L848.74,367.499L848.786,367.354L848.831,367.209L848.875,367.065L848.919,366.921L848.963,366.776L849.006,366.632L849.048,366.489L849.09,366.345L849.131,366.202L849.172,366.059L849.212,365.917L849.252,365.775L849.291,365.633L849.329,365.491L849.367,365.35L849.405,365.209L849.441,365.069L849.478,364.929L849.513,364.79L849.548,364.651L849.583,364.512L849.617,364.374L849.65,364.236L849.682,364.099L849.715,363.963L849.746,363.827L849.777,363.691L849.807,363.556L849.837,363.422L849.862,363.306L849.866,363.289L849.894,363.156L849.922,363.023L849.949,362.892L849.976,362.761L850.002,362.631L850.027,362.501L850.052,362.372L850.076,362.244L850.099,362.117L850.122,361.991L850.144,361.865L850.155,361.802L850.165,361.74L850.176,361.678L850.186,361.616L850.196,361.554L850.206,361.493L850.216,361.432L850.225,361.371L850.235,361.31L850.244,361.249L850.253,361.189L850.262,361.129L850.271,361.069L850.279,361.009L850.288,360.95L850.296,360.89L850.304,360.831L850.312,360.773L850.32,360.714L850.327,360.656L850.335,360.598L850.342,360.54L850.349,360.483L850.356,360.425L850.363,360.368L850.369,360.312L850.376,360.255L850.382,360.199L850.388,360.143L850.394,360.087L850.399,360.032L850.405,359.977L850.41,359.922L850.415,359.867L850.42,359.813L850.425,359.759L850.429,359.705L850.434,359.652L850.438,359.599L850.442,359.546L850.446,359.493L850.45,359.441L850.453,359.389L850.456,359.337L850.459,359.286L850.462,359.235L850.465,359.184L850.468,359.133L850.47,359.083L850.472,359.033L850.474,358.983L850.476,358.934L850.478,358.885L850.479,358.837L850.481,358.788L850.482,358.74L850.483,358.693L850.483,358.645L850.484,358.598L850.484,358.552L850.484,358.505L850.484,358.459L850.484,358.413L850.484,358.368L850.483,358.323L850.482,358.279L850.481,358.234L850.48,358.19L850.479,358.147L850.477,358.103L850.476,358.061L850.474,358.018L850.472,357.976L850.469,357.934L850.467,357.893L850.464,357.852L850.461,357.811L850.458,357.771L850.455,357.731L850.451,357.691L850.448,357.652L850.444,357.613L850.44,357.575L850.436,357.537L850.431,357.499L850.427,357.462L850.422,357.425L850.417,357.389L850.412,357.353L850.406,357.317L850.401,357.282L850.395,357.247L850.389,357.212L850.383,357.178L850.376,357.145L850.37,357.112L850.363,357.079L850.356,357.047L850.349,357.015L850.342,356.983L850.334,356.952L850.327,356.922L850.319,356.892L850.311,356.862L850.303,356.833L850.294,356.804L850.286,356.775L850.277,356.748L850.268,356.72L850.259,356.693L850.249,356.667L850.24,356.64L850.23,356.615L850.22,356.59L850.21,356.565L850.2,356.541L850.19,356.517L850.179,356.494L850.168,356.471L850.157,356.449L850.146,356.427L850.135,356.405L850.124,356.385L850.112,356.364L850.101,356.344L850.089,356.325L850.077,356.306L850.065,356.288L850.052,356.27L850.04,356.252L850.027,356.235L850.014,356.219L850.002,356.203L849.989,356.187L849.988,356.187L849.975,356.172L849.962,356.158L849.949,356.144L849.935,356.13L849.922,356.117L849.907,356.103L849.897,355.907L850.093,355.897Z" style="fill:rgb(31,137,212);"/>
            </g>
            <g transform="matrix(1,0,0,1,-210.184,-56)">
                <path d="M850.036,355.787L850.072,355.797L850.106,355.812L850.137,355.834L850.164,355.86L850.185,355.89L850.202,355.924L850.212,355.959L850.216,355.997L850.213,356.034L850.204,356.07L850.189,356.104L850.168,356.135L850.165,356.139L850.165,356.139L850.165,356.139L850.136,356.175L850.105,356.214L850.074,356.254L850.044,356.294L850.014,356.334L849.984,356.375L849.954,356.416L849.925,356.458L849.896,356.5L849.867,356.542L849.839,356.585L849.811,356.628L849.783,356.671L849.756,356.715L849.729,356.759L849.702,356.804L849.676,356.848L849.649,356.894L849.624,356.939L849.598,356.985L849.573,357.032L849.548,357.078L849.523,357.125L849.499,357.173L849.474,357.22L849.451,357.269L849.427,357.317L849.404,357.366L849.381,357.415L849.358,357.464L849.336,357.514L849.314,357.564L849.292,357.615L849.271,357.666L849.25,357.717L849.229,357.768L849.208,357.82L849.188,357.872L849.168,357.924L849.148,357.977L849.129,358.03L849.11,358.084L849.091,358.137L849.073,358.191L849.054,358.246L849.036,358.3L849.019,358.355L849.001,358.411L848.984,358.466L848.967,358.522L848.951,358.578L848.935,358.635L848.919,358.691L848.903,358.748L848.888,358.806L848.873,358.863L848.861,358.908L848.858,358.921L848.843,358.979L848.829,359.038L848.815,359.096L848.801,359.155L848.788,359.215L848.775,359.274L848.762,359.334L848.749,359.394L848.737,359.455L848.725,359.515L848.713,359.576L848.702,359.637L848.69,359.699L848.679,359.76L848.669,359.822L848.658,359.884L848.648,359.947L848.638,360.01L848.629,360.073L848.619,360.136L848.61,360.199L848.602,360.263L848.593,360.327L848.585,360.391L848.577,360.455L848.569,360.52L848.562,360.584L848.555,360.65L848.548,360.715L848.541,360.78L848.535,360.846L848.529,360.912L848.523,360.978L848.517,361.044L848.512,361.111L848.507,361.178L848.502,361.245L848.498,361.312L848.493,361.379L848.489,361.447L848.485,361.515L848.482,361.583L848.479,361.651L848.476,361.719L848.473,361.788L848.47,361.856L848.468,361.925L848.466,361.995L848.465,362.064L848.463,362.133L848.462,362.203L848.461,362.273L848.46,362.343L848.46,362.413L848.459,362.483L848.459,362.554L848.46,362.625L848.46,362.695L848.461,362.766L848.462,362.838L848.463,362.909L848.465,362.98L848.466,363.052L848.468,363.124L848.47,363.196L848.473,363.268L848.476,363.34L848.479,363.412L848.482,363.485L848.485,363.557L848.489,363.63L848.493,363.703L848.497,363.776L848.501,363.849L848.506,363.923L848.51,363.996L848.515,364.069L848.521,364.143L848.526,364.217L848.532,364.291L848.538,364.365L848.544,364.439L848.55,364.513L848.557,364.587L848.564,364.662L848.571,364.736L848.578,364.811L848.586,364.886L848.594,364.961L848.602,365.036L848.61,365.111L848.618,365.186L848.627,365.261L848.636,365.336L848.645,365.412L848.654,365.487L848.664,365.563L848.673,365.638L848.683,365.714L848.693,365.79L848.704,365.866L848.714,365.941L848.725,366.017L848.736,366.094L848.747,366.17L848.759,366.246L848.77,366.322L848.782,366.398L848.794,366.475L848.807,366.551L848.819,366.627L848.832,366.704L848.845,366.781L848.858,366.857L848.871,366.934L848.884,367.01L848.898,367.087L848.912,367.164L848.926,367.241L848.94,367.318L848.955,367.394L848.97,367.471L848.984,367.548L848.999,367.625L849.015,367.702L849.03,367.779L849.046,367.856L849.062,367.933L849.078,368.01L849.094,368.087L849.11,368.164L849.127,368.241L849.144,368.318L849.161,368.395L849.178,368.472L849.195,368.549L849.213,368.626L849.231,368.703L849.249,368.78L849.267,368.857L849.285,368.935L849.304,369.012L849.322,369.089L849.341,369.165L849.36,369.242L849.379,369.319L849.399,369.396L849.418,369.473L849.438,369.55L849.458,369.627L849.478,369.704L849.498,369.78L849.519,369.857L849.539,369.934L849.56,370.01L849.581,370.087L849.602,370.164L849.623,370.24L849.645,370.317L849.667,370.393L849.688,370.469L849.71,370.546L849.732,370.622L849.755,370.698L849.777,370.774L849.8,370.85L849.823,370.926L849.846,371.002L849.869,371.078L849.892,371.154L849.915,371.23L849.939,371.305L849.963,371.381L849.987,371.456L850.011,371.532L850.035,371.607L850.059,371.682L850.084,371.758L850.109,371.833L850.134,371.908L850.159,371.982L850.184,372.057L850.209,372.132L850.234,372.207L850.26,372.281L850.286,372.355L850.312,372.43L850.338,372.504L850.364,372.578L850.39,372.652L850.416,372.726L850.443,372.799L850.47,372.873L850.497,372.946L850.524,373.02L850.551,373.093L850.578,373.166L850.606,373.239L850.633,373.312L850.661,373.385L850.689,373.457L850.717,373.53L850.745,373.602L850.773,373.674L850.802,373.746L850.83,373.818L850.859,373.89L850.873,373.926L850.879,373.933L850.934,373.998L851.137,374.239L851.361,374.504L851.48,374.645L851.603,374.79L851.731,374.941L851.863,375.096L851.999,375.255L852.138,375.418L852.215,375.507L852.282,375.584L852.428,375.754L852.578,375.927L852.654,376.014L852.73,376.103L852.808,376.191L852.886,376.281L852.964,376.37L853.044,376.461L853.124,376.552L853.204,376.643L853.285,376.734L853.367,376.826L853.449,376.918L853.532,377.011L853.615,377.104L853.699,377.197L853.783,377.29L853.867,377.383L853.952,377.476L854.037,377.569L854.123,377.663L854.208,377.756L854.294,377.849L854.381,377.943L854.467,378.036L854.554,378.129L854.641,378.221L854.728,378.314L854.816,378.406L854.903,378.498L854.991,378.589L855.078,378.68L855.166,378.771L855.254,378.861L855.341,378.951L855.429,379.04L855.517,379.128L855.604,379.216L855.692,379.303L855.779,379.39L855.866,379.476L855.953,379.561L856.04,379.645L856.127,379.729L856.213,379.811L856.299,379.893L856.385,379.974L856.428,380.014L856.471,380.053L856.513,380.093L856.556,380.132L856.598,380.171L856.641,380.21L856.683,380.248L856.725,380.286L856.767,380.324L856.809,380.362L856.851,380.399L856.893,380.436L856.934,380.473L856.976,380.509L857.017,380.545L857.059,380.581L857.1,380.616L857.141,380.651L857.182,380.686L857.222,380.721L857.263,380.755L857.303,380.788L857.344,380.822L857.384,380.855L857.424,380.887L857.464,380.92L857.503,380.952L857.543,380.983L857.582,381.014L857.622,381.045L857.661,381.076L857.699,381.106L857.738,381.135L857.777,381.164L857.815,381.193L857.853,381.222L857.891,381.25L857.929,381.277L857.966,381.304L858.003,381.331L858.04,381.357L858.077,381.383L858.114,381.408L858.15,381.433L858.187,381.458L858.223,381.482L858.258,381.505L858.294,381.528L858.329,381.551L858.364,381.573L858.399,381.595L858.433,381.616L858.468,381.637L858.502,381.657L858.535,381.676L858.569,381.695L858.602,381.714L858.635,381.732L858.668,381.75L858.7,381.767L858.732,381.783L858.764,381.799L858.795,381.815L858.826,381.83L858.857,381.844L858.887,381.858L858.917,381.871L858.947,381.884L858.977,381.896L859.006,381.908L859.034,381.919L859.063,381.929L859.091,381.939L859.118,381.949L859.146,381.957L859.172,381.965L859.199,381.973L859.225,381.98L859.25,381.987L859.275,381.992L859.3,381.998L859.324,382.002L859.348,382.007L859.371,382.01L859.394,382.013L859.417,382.016L859.439,382.017L859.46,382.019L859.481,382.02L859.502,382.02L859.512,382.02L859.522,382.02L859.531,382.019L859.541,382.019L859.551,382.018L859.56,382.018L859.569,382.017L859.579,382.016L859.588,382.015L859.597,382.013L859.606,382.012L859.614,382.011L859.623,382.009L859.631,382.007L859.64,382.005L859.648,382.004L859.656,382.001L859.664,381.999L859.672,381.997L859.68,381.995L859.688,381.992L859.696,381.989L859.703,381.987L859.71,381.984L859.711,381.984L859.718,381.981L859.725,381.978L859.733,381.975L859.74,381.971L859.747,381.968L859.754,381.964L859.761,381.96L859.767,381.957L859.774,381.953L859.781,381.949L859.787,381.944L859.794,381.94L859.801,381.936L859.807,381.931L859.813,381.926L859.82,381.921L859.826,381.916L859.832,381.911L859.839,381.906L859.845,381.9L859.851,381.894L859.857,381.889L859.863,381.883L859.87,381.875L859.898,381.902L859.899,381.901L859.918,381.888L859.937,381.876L859.959,381.867L859.981,381.862L860.004,381.861L860.027,381.863L860.049,381.87L860.069,381.879L860.088,381.892L860.105,381.908L860.118,381.927L860.129,381.947L860.136,381.969L860.139,381.992L860.138,382.015L860.134,382.037L860.126,382.059L860.115,382.079L860.1,382.096L860,382L860.13,382.125L860.121,382.134L860.11,382.145L860.1,382.155L860.089,382.165L860.078,382.175L860.067,382.185L860.056,382.195L860.044,382.204L860.033,382.213L860.021,382.222L860.01,382.23L859.998,382.239L859.986,382.247L859.973,382.255L859.961,382.262L859.949,382.27L859.936,382.277L859.923,382.284L859.91,382.29L859.898,382.297L859.885,382.303L859.871,382.309L859.858,382.315L859.845,382.32L859.844,382.321L859.831,382.325L859.818,382.33L859.804,382.335L859.791,382.34L859.777,382.344L859.763,382.348L859.749,382.352L859.735,382.356L859.721,382.359L859.707,382.362L859.695,382.365L859.685,382.37L859.665,382.381L859.645,382.392L859.625,382.403L859.605,382.414L859.585,382.424L859.565,382.435L859.544,382.445L859.524,382.455L859.504,382.465L859.484,382.475L859.463,382.484L859.443,382.494L859.423,382.503L859.402,382.512L859.382,382.521L859.362,382.53L859.341,382.538L859.321,382.547L859.301,382.555L859.28,382.563L859.26,382.571L859.239,382.579L859.219,382.587L859.198,382.594L859.178,382.601L859.157,382.609L859.137,382.616L859.116,382.622L859.095,382.629L859.075,382.636L859.054,382.642L859.034,382.648L859.013,382.654L858.992,382.66L858.972,382.666L858.951,382.672L858.93,382.677L858.91,382.682L858.889,382.687L858.868,382.692L858.847,382.697L858.827,382.702L858.806,382.706L858.785,382.711L858.764,382.715L858.744,382.719L858.723,382.723L858.702,382.727L858.681,382.73L858.66,382.734L858.64,382.737L858.619,382.74L858.598,382.743L858.577,382.746L858.556,382.749L858.535,382.751L858.514,382.753L858.493,382.756L858.472,382.758L858.452,382.76L858.431,382.761L858.41,382.763L858.389,382.764L858.368,382.766L858.347,382.767L858.326,382.768L858.305,382.769L858.284,382.769L858.263,382.77L858.242,382.77L858.221,382.771L858.2,382.771L858.179,382.771L858.158,382.771L858.137,382.77L858.116,382.77L858.095,382.769L858.074,382.768L858.053,382.767L858.032,382.766L858.011,382.765L857.99,382.764L857.969,382.762L857.948,382.761L857.927,382.759L857.906,382.757L857.885,382.755L857.864,382.753L857.843,382.75L857.822,382.748L857.801,382.745L857.78,382.742L857.758,382.739L857.737,382.736L857.716,382.733L857.695,382.73L857.674,382.726L857.653,382.723L857.632,382.719L857.611,382.715L857.59,382.711L857.569,382.707L857.548,382.702L857.527,382.698L857.506,382.693L857.485,382.689L857.443,382.679L857.401,382.668L857.359,382.657L857.317,382.646L857.275,382.634L857.233,382.621L857.191,382.608L857.149,382.595L857.107,382.581L857.065,382.566L857.023,382.551L856.981,382.535L856.94,382.519L856.898,382.502L856.856,382.485L856.814,382.467L856.772,382.449L856.731,382.43L856.689,382.411L856.647,382.391L856.606,382.371L856.564,382.35L856.522,382.329L856.481,382.308L856.439,382.285L856.398,382.263L856.356,382.24L856.315,382.216L856.273,382.192L856.232,382.168L856.19,382.143L856.149,382.117L856.108,382.091L856.066,382.065L856.025,382.038L855.984,382.011L855.943,381.983L855.901,381.955L855.86,381.926L855.819,381.897L855.778,381.867L855.737,381.837L855.696,381.807L855.655,381.776L855.614,381.745L855.573,381.713L855.532,381.681L855.492,381.648L855.451,381.615L855.41,381.582L855.369,381.548L855.329,381.514L855.288,381.479L855.248,381.444L855.207,381.408L855.167,381.372L855.126,381.336L855.086,381.299L855.045,381.262L855.005,381.225L854.965,381.187L854.925,381.148L854.885,381.109L854.844,381.07L854.804,381.031L854.764,380.991L854.724,380.95L854.684,380.91L854.645,380.868L854.605,380.827L854.565,380.785L854.525,380.743L854.486,380.7L854.446,380.657L854.406,380.614L854.367,380.57L854.327,380.526L854.288,380.481L854.249,380.436L854.209,380.391L854.17,380.346L854.131,380.3L854.092,380.253L854.053,380.207L854.014,380.16L853.975,380.112L853.936,380.065L853.897,380.017L853.858,379.968L853.82,379.919L853.781,379.87L853.743,379.821L853.704,379.771L853.666,379.721L853.627,379.671L853.589,379.62L853.551,379.569L853.513,379.517L853.474,379.466L853.436,379.414L853.399,379.361L853.361,379.308L853.323,379.255L853.285,379.202L853.247,379.148L853.21,379.094L853.172,379.04L853.135,378.986L853.098,378.931L853.06,378.876L853.023,378.82L852.986,378.764L852.949,378.708L852.912,378.652L852.875,378.595L852.838,378.538L852.801,378.481L852.765,378.423L852.728,378.366L852.692,378.307L852.655,378.249L852.619,378.19L852.583,378.132L852.547,378.072L852.511,378.013L852.475,377.953L852.439,377.893L852.403,377.833L852.367,377.772L852.332,377.711L852.296,377.65L852.261,377.589L852.225,377.527L852.19,377.466L852.155,377.403L852.12,377.341L852.085,377.278L852.05,377.216L852.015,377.153L851.981,377.089L851.946,377.026L851.912,376.962L851.877,376.898L851.843,376.833L851.809,376.769L851.775,376.704L851.741,376.639L851.707,376.574L851.673,376.509L851.64,376.443L851.606,376.377L851.573,376.311L851.539,376.245L851.506,376.178L851.473,376.111L851.44,376.044L851.407,375.977L851.375,375.91L851.342,375.842L851.309,375.775L851.277,375.707L851.245,375.639L851.212,375.57L851.18,375.502L851.148,375.433L851.116,375.364L851.085,375.295L851.053,375.226L851.022,375.156L850.99,375.086L850.959,375.016L850.928,374.946L850.897,374.876L850.866,374.806L850.835,374.735L850.805,374.665L850.774,374.594L850.744,374.523L850.714,374.451L850.683,374.38L850.67,374.347L850.607,374.274L850.551,374.208L850.496,374.142L850.441,374.075L850.386,374.009L850.331,373.943L850.277,373.876L850.224,373.809L850.17,373.742L850.117,373.675L850.065,373.608L850.012,373.541L849.96,373.474L849.909,373.406L849.858,373.339L849.807,373.271L849.756,373.203L849.706,373.136L849.657,373.068L849.607,372.999L849.558,372.931L849.51,372.863L849.461,372.794L849.414,372.726L849.366,372.657L849.319,372.589L849.272,372.52L849.226,372.451L849.18,372.382L849.134,372.313L849.089,372.243L849.044,372.174L848.999,372.105L848.955,372.035L848.912,371.965L848.868,371.896L848.825,371.826L848.783,371.756L848.74,371.686L848.699,371.616L848.657,371.545L848.616,371.475L848.575,371.405L848.535,371.334L848.495,371.264L848.455,371.193L848.416,371.122L848.377,371.052L848.339,370.981L848.301,370.91L848.263,370.839L848.226,370.767L848.189,370.696L848.153,370.625L848.117,370.554L848.081,370.482L848.046,370.411L848.011,370.339L847.977,370.267L847.943,370.195L847.909,370.124L847.876,370.052L847.843,369.98L847.81,369.908L847.78,369.839L847.778,369.836L847.746,369.763L847.715,369.691L847.684,369.619L847.654,369.546L847.624,369.474L847.594,369.401L847.565,369.329L847.536,369.256L847.508,369.183L847.48,369.11L847.452,369.037L847.425,368.965L847.398,368.892L847.372,368.819L847.346,368.745L847.32,368.672L847.295,368.599L847.27,368.526L847.246,368.453L847.222,368.379L847.199,368.306L847.176,368.232L847.153,368.159L847.131,368.085L847.109,368.012L847.087,367.938L847.066,367.864L847.046,367.791L847.025,367.717L847.006,367.643L846.986,367.569L846.967,367.495L846.949,367.421L846.931,367.348L846.913,367.274L846.896,367.199L846.879,367.125L846.863,367.051L846.847,366.977L846.831,366.903L846.816,366.829L846.802,366.755L846.787,366.68L846.774,366.606L846.76,366.532L846.747,366.457L846.735,366.383L846.729,366.345L846.723,366.309L846.711,366.234L846.7,366.16L846.689,366.085L846.679,366.011L846.669,365.936L846.66,365.862L846.651,365.787L846.642,365.713L846.634,365.638L846.626,365.563L846.619,365.489L846.612,365.414L846.606,365.34L846.6,365.265L846.594,365.19L846.589,365.116L846.585,365.041L846.581,364.966L846.577,364.892L846.574,364.817L846.571,364.742L846.569,364.668L846.567,364.593L846.565,364.518L846.564,364.443L846.564,364.369L846.564,364.294L846.564,364.219L846.565,364.145L846.566,364.07L846.568,363.995L846.57,363.921L846.572,363.846L846.576,363.772L846.579,363.697L846.583,363.622L846.587,363.548L846.592,363.473L846.598,363.399L846.604,363.324L846.61,363.249L846.617,363.175L846.624,363.1L846.631,363.026L846.639,362.952L846.648,362.877L846.649,362.87L846.657,362.803L846.667,362.728L846.677,362.654L846.687,362.58L846.698,362.505L846.71,362.431L846.722,362.357L846.734,362.283L846.747,362.208L846.76,362.134L846.774,362.06L846.788,361.986L846.803,361.912L846.818,361.838L846.834,361.764L846.85,361.69L846.867,361.616L846.884,361.543L846.901,361.469L846.919,361.395L846.938,361.321L846.957,361.248L846.976,361.174L846.996,361.101L847.017,361.027L847.037,360.954L847.059,360.88L847.081,360.807L847.103,360.733L847.126,360.66L847.149,360.587L847.173,360.514L847.197,360.441L847.222,360.368L847.247,360.295L847.273,360.222L847.299,360.149L847.326,360.076L847.353,360.004L847.38,359.931L847.409,359.858L847.437,359.786L847.466,359.713L847.496,359.641L847.526,359.569L847.557,359.496L847.588,359.424L847.619,359.352L847.651,359.28L847.684,359.208L847.717,359.136L847.75,359.064L847.784,358.993L847.819,358.921L847.854,358.849L847.889,358.778L847.925,358.706L847.962,358.635L847.999,358.564L848.036,358.493L848.074,358.422L848.113,358.351L848.152,358.28L848.186,358.218L848.191,358.209L848.231,358.138L848.272,358.068L848.313,357.997L848.354,357.927L848.396,357.856L848.439,357.786L848.482,357.716L848.525,357.646L848.569,357.576L848.614,357.506L848.659,357.436L848.705,357.366L848.751,357.297L848.797,357.227L848.844,357.158L848.892,357.089L848.94,357.02L848.988,356.951L849.038,356.882L849.087,356.813L849.137,356.744L849.188,356.675L849.239,356.607L849.291,356.539L849.343,356.47L849.396,356.402L849.449,356.334L849.502,356.266L849.557,356.198L849.611,356.13L849.667,356.063L849.722,355.995L849.779,355.928L849.835,355.861L849.861,355.835L849.892,355.813L849.926,355.798L849.962,355.788L849.999,355.784L850.036,355.787ZM851.459,375.29L851.49,375.358L851.521,375.426L851.553,375.494L851.584,375.561L851.616,375.629L851.648,375.696L851.68,375.763L851.712,375.83L851.744,375.896L851.776,375.962L851.809,376.029L851.841,376.094L851.874,376.16L851.907,376.226L851.939,376.291L851.972,376.356L852.005,376.421L852.038,376.485L852.072,376.55L852.105,376.614L852.138,376.678L852.172,376.741L852.205,376.805L852.239,376.868L852.273,376.931L852.307,376.994L852.341,377.056L852.375,377.118L852.409,377.18L852.443,377.242L852.478,377.303L852.512,377.364L852.547,377.425L852.581,377.486L852.616,377.546L852.651,377.607L852.686,377.666L852.721,377.726L852.756,377.785L852.791,377.845L852.826,377.903L852.861,377.962L852.897,378.02L852.932,378.078L852.968,378.136L853.003,378.193L853.039,378.25L853.075,378.307L853.111,378.364L853.147,378.42L853.183,378.476L853.219,378.531L853.255,378.587L853.291,378.642L853.328,378.697L853.364,378.751L853.4,378.805L853.437,378.859L853.473,378.913L853.51,378.966L853.547,379.019L853.584,379.071L853.621,379.123L853.657,379.175L853.694,379.227L853.731,379.278L853.769,379.329L853.806,379.38L853.843,379.43L853.88,379.48L853.918,379.53L853.955,379.579L853.992,379.628L854.03,379.676L854.068,379.725L854.105,379.773L854.143,379.82L854.181,379.867L854.218,379.914L854.256,379.961L854.294,380.007L854.332,380.053L854.37,380.098L854.408,380.143L854.446,380.188L854.484,380.232L854.522,380.276L854.56,380.32L854.599,380.363L854.637,380.406L854.675,380.448L854.714,380.49L854.752,380.532L854.79,380.573L854.829,380.614L854.867,380.655L854.906,380.695L854.944,380.735L854.983,380.774L855.022,380.813L855.06,380.851L855.099,380.89L855.138,380.927L855.176,380.965L855.215,381.002L855.254,381.038L855.293,381.074L855.332,381.11L855.371,381.145L855.409,381.18L855.448,381.215L855.487,381.249L855.526,381.282L855.565,381.316L855.604,381.348L855.643,381.381L855.682,381.413L855.721,381.444L855.76,381.475L855.799,381.506L855.838,381.536L855.877,381.566L855.916,381.595L855.956,381.624L855.995,381.652L856.034,381.68L856.073,381.708L856.112,381.735L856.151,381.762L856.19,381.788L856.229,381.813L856.268,381.839L856.307,381.863L856.346,381.888L856.385,381.912L856.425,381.935L856.464,381.958L856.503,381.981L856.542,382.002L856.581,382.024L856.62,382.045L856.659,382.066L856.698,382.086L856.737,382.105L856.776,382.125L856.815,382.143L856.854,382.161L856.893,382.179L856.931,382.196L856.97,382.213L857.009,382.229L857.048,382.245L857.087,382.26L857.126,382.275L857.164,382.289L857.203,382.303L857.242,382.316L857.281,382.329L857.319,382.341L857.358,382.353L857.397,382.364L857.435,382.375L857.474,382.385L857.512,382.395L857.551,382.404L857.57,382.409L857.589,382.413L857.608,382.417L857.628,382.421L857.647,382.425L857.666,382.429L857.685,382.433L857.704,382.436L857.724,382.44L857.743,382.443L857.762,382.446L857.781,382.449L857.8,382.452L857.819,382.455L857.838,382.457L857.857,382.46L857.877,382.462L857.896,382.464L857.915,382.467L857.934,382.469L857.953,382.47L857.972,382.472L857.991,382.474L858.01,382.475L858.029,382.476L858.048,382.478L858.067,382.479L858.086,382.48L858.105,382.48L858.124,382.481L858.143,382.482L858.162,382.482L858.181,382.482L858.2,382.482L858.219,382.482L858.238,382.482L858.257,382.482L858.276,382.482L858.295,382.481L858.314,382.48L858.333,382.48L858.352,382.479L858.371,382.478L858.389,382.476L858.408,382.475L858.427,382.474L858.446,382.472L858.465,382.47L858.484,382.468L858.503,382.466L858.521,382.464L858.54,382.462L858.559,382.459L858.578,382.457L858.597,382.454L858.616,382.451L858.634,382.448L858.653,382.445L858.672,382.442L858.691,382.438L858.71,382.435L858.728,382.431L858.747,382.427L858.766,382.423L858.785,382.419L858.803,382.415L858.822,382.411L858.841,382.406L858.86,382.401L858.878,382.396L858.897,382.392L858.916,382.386L858.934,382.381L858.953,382.376L858.972,382.37L858.99,382.365L859.009,382.359L859.028,382.353L859.046,382.347L859.065,382.34L859.084,382.334L859.102,382.327L859.104,382.327L859.101,382.326L859.069,382.317L859.037,382.307L859.005,382.297L858.972,382.286L858.939,382.275L858.906,382.263L858.873,382.25L858.839,382.237L858.806,382.224L858.772,382.209L858.738,382.195L858.704,382.179L858.669,382.164L858.635,382.147L858.6,382.13L858.565,382.113L858.53,382.095L858.494,382.077L858.459,382.058L858.423,382.038L858.387,382.018L858.351,381.998L858.315,381.977L858.278,381.956L858.242,381.934L858.205,381.912L858.168,381.889L858.13,381.866L858.093,381.842L858.055,381.818L858.017,381.793L857.979,381.768L857.941,381.743L857.903,381.717L857.864,381.691L857.826,381.664L857.787,381.637L857.748,381.609L857.709,381.582L857.669,381.553L857.63,381.524L857.59,381.495L857.55,381.466L857.51,381.436L857.47,381.405L857.43,381.375L857.39,381.343L857.349,381.312L857.308,381.28L857.267,381.248L857.226,381.215L857.185,381.182L857.144,381.149L857.103,381.116L857.061,381.082L857.02,381.047L856.978,381.013L856.936,380.978L856.894,380.943L856.852,380.907L856.81,380.871L856.767,380.835L856.725,380.798L856.682,380.762L856.64,380.724L856.597,380.687L856.554,380.649L856.511,380.611L856.468,380.573L856.425,380.535L856.382,380.496L856.338,380.457L856.295,380.417L856.252,380.378L856.239,380.366L856.208,380.338L856.164,380.298L856.121,380.257L856.033,380.176L855.946,380.094L855.858,380.011L855.769,379.927L855.681,379.842L855.593,379.756L855.504,379.67L855.415,379.583L855.326,379.495L855.237,379.407L855.148,379.318L855.06,379.228L854.971,379.138L854.882,379.048L854.793,378.957L854.704,378.866L854.615,378.774L854.527,378.682L854.438,378.589L854.35,378.497L854.262,378.404L854.174,378.311L854.086,378.218L853.999,378.124L853.912,378.031L853.825,377.937L853.738,377.844L853.652,377.751L853.566,377.657L853.481,377.564L853.396,377.471L853.311,377.378L853.227,377.285L853.144,377.192L853.061,377.1L852.978,377.008L852.896,376.917L852.815,376.826L852.734,376.735L852.654,376.644L852.574,376.555L852.495,376.465L852.417,376.377L852.34,376.289L852.263,376.201L852.112,376.028L851.964,375.859L851.897,375.782L851.82,375.692L851.679,375.529L851.542,375.37L851.442,375.253L851.459,375.29ZM848.501,358.562L848.464,358.631L848.427,358.699L848.391,358.768L848.355,358.837L848.32,358.906L848.286,358.975L848.251,359.045L848.218,359.114L848.185,359.183L848.152,359.253L848.12,359.322L848.088,359.392L848.057,359.461L848.026,359.531L847.996,359.601L847.966,359.67L847.936,359.74L847.907,359.81L847.879,359.88L847.851,359.95L847.824,360.02L847.797,360.09L847.77,360.16L847.744,360.231L847.719,360.301L847.693,360.371L847.669,360.442L847.645,360.512L847.621,360.582L847.598,360.653L847.575,360.723L847.553,360.794L847.531,360.865L847.51,360.935L847.489,361.006L847.468,361.077L847.448,361.148L847.429,361.219L847.41,361.29L847.391,361.361L847.373,361.432L847.355,361.503L847.338,361.574L847.321,361.645L847.305,361.716L847.289,361.787L847.274,361.858L847.259,361.93L847.245,362.001L847.231,362.072L847.217,362.144L847.204,362.215L847.191,362.286L847.179,362.358L847.167,362.429L847.156,362.501L847.145,362.572L847.135,362.644L847.125,362.715L847.115,362.787L847.106,362.859L847.098,362.923L847.098,362.93L847.089,363.002L847.082,363.074L847.074,363.145L847.067,363.217L847.061,363.289L847.055,363.361L847.049,363.432L847.044,363.504L847.039,363.576L847.035,363.648L847.031,363.72L847.028,363.791L847.025,363.863L847.022,363.935L847.02,364.007L847.019,364.079L847.018,364.151L847.017,364.223L847.016,364.295L847.017,364.367L847.017,364.439L847.018,364.511L847.019,364.583L847.021,364.655L847.024,364.727L847.026,364.799L847.029,364.871L847.033,364.943L847.037,365.015L847.041,365.087L847.046,365.158L847.052,365.23L847.057,365.302L847.063,365.374L847.07,365.446L847.077,365.518L847.084,365.59L847.092,365.662L847.1,365.734L847.109,365.806L847.118,365.878L847.128,365.95L847.138,366.022L847.148,366.094L847.159,366.166L847.17,366.238L847.182,366.309L847.193,366.381L847.206,366.453L847.219,366.525L847.232,366.597L847.246,366.668L847.26,366.74L847.274,366.812L847.289,366.884L847.304,366.955L847.32,367.027L847.336,367.099L847.353,367.17L847.37,367.242L847.387,367.314L847.405,367.385L847.423,367.457L847.441,367.528L847.46,367.6L847.48,367.671L847.5,367.743L847.52,367.814L847.541,367.885L847.562,367.957L847.583,368.028L847.605,368.099L847.627,368.17L847.65,368.241L847.673,368.313L847.696,368.384L847.72,368.455L847.744,368.526L847.769,368.597L847.794,368.668L847.82,368.739L847.845,368.809L847.872,368.88L847.898,368.951L847.925,369.022L847.953,369.092L847.981,369.163L848.009,369.233L848.038,369.304L848.067,369.374L848.096,369.445L848.126,369.515L848.156,369.585L848.188,369.659L848.218,369.726L848.249,369.796L848.281,369.866L848.313,369.936L848.345,370.006L848.378,370.076L848.412,370.146L848.445,370.216L848.479,370.286L848.514,370.355L848.549,370.425L848.584,370.494L848.619,370.564L848.655,370.633L848.692,370.703L848.729,370.772L848.766,370.841L848.803,370.91L848.841,370.979L848.879,371.048L848.918,371.117L848.957,371.186L848.997,371.255L849.036,371.323L849.077,371.392L849.117,371.461L849.158,371.529L849.199,371.597L849.241,371.666L849.283,371.734L849.326,371.802L849.369,371.87L849.412,371.938L849.455,372.006L849.499,372.074L849.544,372.141L849.588,372.209L849.633,372.276L849.679,372.344L849.725,372.411L849.771,372.479L849.817,372.546L849.864,372.613L849.911,372.68L849.959,372.747L850.007,372.813L850.056,372.88L850.104,372.947L850.133,372.985L850.109,372.921L850.082,372.847L850.055,372.773L850.028,372.698L850.001,372.623L849.974,372.549L849.948,372.474L849.921,372.399L849.895,372.324L849.869,372.248L849.843,372.173L849.817,372.098L849.792,372.022L849.791,372.018L849.766,371.946L849.741,371.871L849.716,371.795L849.691,371.719L849.666,371.643L849.642,371.567L849.617,371.491L849.593,371.415L849.569,371.338L849.545,371.262L849.521,371.186L849.497,371.109L849.473,371.032L849.45,370.956L849.427,370.879L849.404,370.802L849.381,370.725L849.358,370.648L849.336,370.571L849.313,370.494L849.291,370.417L849.269,370.34L849.247,370.263L849.226,370.186L849.204,370.108L849.183,370.031L849.162,369.954L849.141,369.876L849.12,369.799L849.099,369.721L849.079,369.644L849.058,369.566L849.038,369.488L849.018,369.411L848.999,369.333L848.979,369.255L848.96,369.178L848.94,369.1L848.921,369.022L848.902,368.944L848.884,368.867L848.865,368.789L848.847,368.711L848.829,368.633L848.811,368.555L848.793,368.478L848.776,368.4L848.758,368.322L848.741,368.244L848.724,368.166L848.708,368.088L848.691,368.011L848.675,367.933L848.658,367.855L848.642,367.777L848.627,367.699L848.611,367.622L848.596,367.544L848.58,367.466L848.565,367.389L848.551,367.311L848.536,367.233L848.522,367.156L848.507,367.078L848.493,367.001L848.48,366.923L848.466,366.846L848.453,366.768L848.44,366.691L848.427,366.613L848.414,366.536L848.401,366.459L848.389,366.382L848.377,366.304L848.365,366.227L848.353,366.15L848.342,366.073L848.33,365.996L848.319,365.92L848.308,365.843L848.298,365.766L848.287,365.689L848.277,365.613L848.267,365.536L848.257,365.46L848.248,365.383L848.239,365.307L848.23,365.231L848.221,365.155L848.212,365.078L848.204,365.003L848.195,364.927L848.187,364.851L848.18,364.775L848.172,364.699L848.165,364.624L848.158,364.548L848.151,364.473L848.144,364.398L848.138,364.323L848.132,364.248L848.126,364.173L848.12,364.098L848.115,364.023L848.11,363.949L848.105,363.874L848.1,363.8L848.095,363.726L848.091,363.652L848.087,363.578L848.083,363.504L848.08,363.43L848.076,363.356L848.073,363.283L848.071,363.209L848.068,363.136L848.066,363.063L848.064,362.99L848.062,362.917L848.06,362.845L848.059,362.772L848.058,362.7L848.057,362.628L848.056,362.556L848.056,362.484L848.056,362.412L848.056,362.34L848.057,362.269L848.057,362.197L848.058,362.126L848.059,362.055L848.061,361.985L848.062,361.914L848.064,361.843L848.067,361.773L848.069,361.703L848.072,361.633L848.075,361.563L848.078,361.494L848.082,361.424L848.086,361.355L848.09,361.286L848.094,361.217L848.099,361.149L848.104,361.08L848.109,361.012L848.114,360.944L848.12,360.876L848.126,360.808L848.132,360.741L848.138,360.673L848.145,360.606L848.152,360.539L848.16,360.473L848.167,360.406L848.175,360.34L848.183,360.274L848.192,360.208L848.201,360.143L848.21,360.077L848.219,360.012L848.228,359.947L848.238,359.882L848.249,359.818L848.259,359.754L848.27,359.69L848.281,359.626L848.292,359.562L848.304,359.499L848.316,359.436L848.328,359.373L848.34,359.311L848.353,359.248L848.366,359.186L848.379,359.124L848.393,359.063L848.407,359.001L848.421,358.94L848.436,358.88L848.451,358.819L848.454,358.806L848.466,358.759L848.481,358.699L848.497,358.639L848.513,358.579L848.53,358.52L848.537,358.496L848.501,358.562Z" style="fill:rgb(31,137,212);"/>
            </g>
            <g transform="matrix(1.01505,-2.08038e-17,1.37234e-17,0.958995,-223.173,-40.6571)">
                <path d="M850.906,374.355L850.992,374.35L851.078,374.345L851.164,374.341L851.251,374.337L851.337,374.333L851.423,374.33L851.509,374.326L851.595,374.323L851.681,374.32L851.767,374.318L851.853,374.315L851.939,374.313L852.024,374.311L852.11,374.309L852.196,374.308L852.281,374.307L852.367,374.306L852.452,374.305L852.538,374.305L852.623,374.305L852.708,374.305L852.793,374.305L852.878,374.305L852.963,374.306L853.048,374.307L853.133,374.308L853.217,374.31L853.302,374.312L853.386,374.313L853.47,374.316L853.554,374.318L853.638,374.321L853.722,374.324L853.806,374.327L853.889,374.33L853.973,374.334L854.056,374.338L854.139,374.342L854.222,374.347L854.305,374.351L854.388,374.356L854.47,374.361L854.552,374.367L854.634,374.372L854.716,374.378L854.798,374.384L854.88,374.391L854.961,374.397L855.042,374.404L855.123,374.411L855.204,374.418L855.285,374.426L855.365,374.434L855.445,374.442L855.525,374.45L855.605,374.458L855.684,374.467L855.764,374.476L855.843,374.485L855.921,374.495L856,374.504L856.078,374.514L856.156,374.524L856.234,374.535L856.312,374.545L856.389,374.556L856.466,374.567L856.543,374.578L856.619,374.59L856.695,374.602L856.771,374.614L856.847,374.626L856.922,374.638L856.997,374.651L857.072,374.664L857.147,374.677L857.221,374.691L857.295,374.704L857.368,374.718L857.442,374.732L857.515,374.747L857.587,374.761L857.66,374.776L857.732,374.791L857.803,374.807L857.874,374.822L857.945,374.838L858.016,374.854L858.086,374.87L858.156,374.887L858.226,374.904L858.295,374.92L858.364,374.938L858.432,374.955L858.501,374.973L858.568,374.991L858.636,375.009L858.703,375.027L858.769,375.046L858.836,375.065L858.901,375.084L858.967,375.103L859.032,375.123L859.096,375.142L859.161,375.162L859.225,375.183L859.288,375.203L859.351,375.224L859.414,375.245L859.476,375.266L859.537,375.287L859.599,375.309L859.66,375.331L859.72,375.353L859.78,375.376L859.839,375.398L859.899,375.421L859.957,375.444L860.015,375.467L860.073,375.491L860.13,375.515L860.187,375.539L860.243,375.563L860.299,375.588L860.354,375.613L860.409,375.638L860.464,375.663L860.518,375.688L860.571,375.714L860.624,375.74L860.676,375.766L860.728,375.793L860.779,375.819L860.83,375.846L860.881,375.874L860.93,375.901L860.98,375.929L861.028,375.957L861.077,375.985L861.124,376.014L861.171,376.042L861.218,376.071L861.264,376.1L861.31,376.13L861.355,376.16L861.399,376.189L861.443,376.22L861.486,376.25L861.507,376.265L861.529,376.281L861.55,376.296L861.571,376.312L861.592,376.327L861.612,376.343L861.633,376.359L861.653,376.375L861.674,376.39L861.694,376.406L861.714,376.422L861.733,376.438L861.753,376.454L861.773,376.471L861.792,376.487L861.811,376.503L861.83,376.52L861.849,376.536L861.868,376.552L861.887,376.569L861.905,376.586L861.923,376.602L861.941,376.619L861.959,376.636L861.977,376.653L861.995,376.67L862.013,376.687L862.03,376.704L862.047,376.721L862.064,376.738L862.081,376.756L862.098,376.773L862.114,376.79L862.131,376.808L862.147,376.825L862.163,376.843L862.179,376.861L862.195,376.879L862.21,376.896L862.226,376.914L862.241,376.932L862.256,376.95L862.271,376.969L862.286,376.987L862.3,377.005L862.315,377.023L862.329,377.042L862.343,377.06L862.357,377.079L862.371,377.097L862.384,377.116L862.398,377.135L862.411,377.154L862.424,377.173L862.437,377.192L862.45,377.211L862.462,377.23L862.474,377.249L862.486,377.268L862.498,377.287L862.51,377.307L862.522,377.326L862.533,377.346L862.545,377.365L862.556,377.385L862.566,377.405L862.577,377.425L862.588,377.444L862.598,377.464L862.608,377.484L862.618,377.505L862.628,377.525L862.637,377.545L862.647,377.565L862.656,377.586L862.665,377.606L862.674,377.626L862.682,377.647L862.691,377.668L862.699,377.688L862.707,377.709L862.715,377.73L862.722,377.751L862.73,377.772L862.737,377.793L862.744,377.814L862.751,377.835L862.757,377.856L862.764,377.878L862.77,377.899L862.776,377.92L862.782,377.942L862.787,377.963L862.793,377.985L862.798,378.007L862.803,378.028L862.807,378.05L862.812,378.072L862.816,378.094L862.82,378.116L862.824,378.138L862.828,378.16L862.831,378.182L862.835,378.204L862.838,378.227L862.841,378.249L862.843,378.271L862.846,378.294L862.848,378.316L862.85,378.339L862.851,378.361L862.853,378.384L862.854,378.406L862.855,378.429L862.856,378.452L862.857,378.475L862.857,378.498L862.857,378.521L862.857,378.544L862.857,378.567L862.857,378.59L862.856,378.613L862.855,378.636L862.854,378.659L862.853,378.682L862.851,378.706L862.849,378.729L862.847,378.752L862.845,378.776L862.843,378.799L862.84,378.823L862.837,378.846L862.834,378.87L862.831,378.894L862.827,378.917L862.823,378.941L862.819,378.965L862.815,378.989L862.81,379.012L862.806,379.036L862.801,379.06L862.796,379.084L862.79,379.108L862.785,379.132L862.779,379.156L862.773,379.18L862.766,379.204L862.76,379.229L862.753,379.253L862.746,379.277L862.739,379.301L862.731,379.326L862.724,379.35L862.716,379.375L862.708,379.399L862.699,379.424L862.691,379.448L862.682,379.473L862.673,379.497L862.664,379.522L862.654,379.547L862.645,379.571L862.635,379.596L862.624,379.621L862.614,379.646L862.603,379.671L862.592,379.695L862.581,379.72L862.57,379.745L862.558,379.77L862.547,379.795L862.535,379.821L862.522,379.846L862.51,379.871L862.497,379.896L862.484,379.921L862.471,379.947L862.458,379.972L862.444,379.997L862.43,380.023L862.416,380.048L862.402,380.074L862.387,380.099L862.372,380.125L862.357,380.15L862.342,380.176L862.326,380.202L862.31,380.227L862.294,380.253L862.278,380.279L862.262,380.305L862.245,380.331L862.228,380.356L862.211,380.382L862.193,380.408L862.176,380.434L862.158,380.461L862.139,380.487L862.121,380.513L862.102,380.539L862.083,380.565L862.064,380.592L862.045,380.618L862.025,380.644L862.005,380.671L861.985,380.697L861.965,380.724L861.944,380.75L861.923,380.777L861.902,380.803L861.881,380.83L861.859,380.857L861.838,380.884L861.815,380.91L861.793,380.937L861.771,380.964L861.748,380.991L861.725,381.018L861.701,381.045L861.678,381.072L861.654,381.099L861.63,381.126L861.605,381.154L861.581,381.181L861.556,381.208L861.531,381.235L861.506,381.263L861.48,381.29L861.454,381.318L861.428,381.345L861.402,381.373L861.375,381.4L861.348,381.428L861.321,381.456L861.294,381.483L861.266,381.511L861.238,381.539L861.21,381.567L861.181,381.595L861.153,381.623L861.124,381.651L861.094,381.679L861.065,381.707L861.035,381.735L861.005,381.763L860.975,381.791L860.944,381.82L860.914,381.848L860.883,381.876L860.851,381.905L860.82,381.933L860.788,381.962L860.756,381.99L860.723,382.019L860.691,382.047L860.658,382.076L860.625,382.105L860.591,382.134L860.557,382.163L860.523,382.191L860.489,382.22L860.455,382.249L860.42,382.278L860.385,382.307L860.349,382.337L860.314,382.366L860.278,382.395L860.242,382.424L860.205,382.453L860.168,382.483L860.131,382.512L860.094,382.542L860.062,382.567L860.057,382.571L860.019,382.601L859.981,382.63L859.942,382.66L859.75,382.629L859.78,382.426L859.817,382.396L859.855,382.367L859.892,382.337L859.897,382.333L859.928,382.308L859.965,382.279L860.001,382.249L860.037,382.22L860.072,382.191L860.107,382.162L860.142,382.133L860.177,382.104L860.212,382.075L860.246,382.046L860.28,382.017L860.313,381.989L860.347,381.96L860.38,381.931L860.412,381.903L860.445,381.874L860.477,381.846L860.509,381.817L860.541,381.789L860.572,381.761L860.603,381.732L860.634,381.704L860.665,381.676L860.695,381.648L860.725,381.62L860.755,381.592L860.785,381.564L860.814,381.536L860.843,381.508L860.872,381.481L860.9,381.453L860.928,381.426L860.956,381.398L860.984,381.371L861.011,381.343L861.038,381.316L861.065,381.288L861.092,381.261L861.118,381.234L861.144,381.207L861.17,381.18L861.196,381.153L861.221,381.126L861.246,381.099L861.271,381.072L861.295,381.046L861.319,381.019L861.343,380.992L861.367,380.966L861.391,380.939L861.414,380.913L861.437,380.886L861.459,380.86L861.482,380.834L861.504,380.808L861.526,380.781L861.548,380.755L861.569,380.729L861.59,380.703L861.611,380.678L861.632,380.652L861.652,380.626L861.672,380.6L861.692,380.575L861.712,380.549L861.731,380.524L861.751,380.498L861.77,380.473L861.788,380.447L861.807,380.422L861.825,380.397L861.843,380.372L861.86,380.347L861.878,380.322L861.895,380.297L861.912,380.272L861.929,380.247L861.945,380.223L861.961,380.198L861.977,380.173L861.993,380.149L862.009,380.124L862.024,380.1L862.039,380.076L862.054,380.051L862.068,380.027L862.082,380.003L862.097,379.979L862.11,379.955L862.124,379.931L862.137,379.907L862.15,379.883L862.163,379.86L862.176,379.836L862.188,379.812L862.201,379.789L862.213,379.765L862.224,379.742L862.236,379.719L862.247,379.696L862.258,379.672L862.269,379.649L862.279,379.626L862.29,379.603L862.3,379.58L862.31,379.558L862.32,379.535L862.329,379.512L862.338,379.489L862.347,379.467L862.356,379.444L862.365,379.422L862.373,379.4L862.381,379.377L862.389,379.355L862.397,379.333L862.404,379.311L862.412,379.289L862.419,379.267L862.425,379.245L862.432,379.223L862.438,379.202L862.445,379.18L862.451,379.159L862.456,379.137L862.462,379.116L862.467,379.094L862.472,379.073L862.477,379.052L862.482,379.031L862.487,379.01L862.491,378.988L862.495,378.968L862.499,378.947L862.503,378.926L862.506,378.905L862.51,378.884L862.513,378.864L862.516,378.843L862.518,378.823L862.521,378.802L862.523,378.782L862.525,378.762L862.527,378.742L862.529,378.721L862.531,378.701L862.532,378.681L862.533,378.661L862.534,378.642L862.535,378.622L862.535,378.602L862.536,378.582L862.536,378.563L862.536,378.543L862.536,378.524L862.535,378.504L862.535,378.485L862.534,378.465L862.533,378.446L862.532,378.427L862.531,378.408L862.529,378.389L862.528,378.37L862.526,378.351L862.524,378.332L862.522,378.313L862.519,378.294L862.517,378.275L862.514,378.257L862.511,378.238L862.508,378.219L862.505,378.201L862.501,378.182L862.498,378.164L862.494,378.146L862.49,378.127L862.486,378.109L862.482,378.091L862.477,378.073L862.472,378.054L862.467,378.036L862.462,378.018L862.457,378L862.452,377.982L862.446,377.964L862.441,377.947L862.435,377.929L862.429,377.911L862.422,377.893L862.416,377.876L862.409,377.858L862.402,377.84L862.396,377.823L862.388,377.805L862.381,377.788L862.374,377.77L862.366,377.753L862.358,377.736L862.35,377.718L862.342,377.701L862.334,377.684L862.325,377.667L862.317,377.65L862.308,377.633L862.299,377.616L862.289,377.599L862.28,377.582L862.271,377.565L862.261,377.548L862.251,377.531L862.241,377.514L862.231,377.497L862.22,377.481L862.21,377.464L862.199,377.447L862.188,377.431L862.177,377.414L862.166,377.398L862.154,377.381L862.143,377.365L862.131,377.348L862.119,377.332L862.107,377.316L862.095,377.299L862.082,377.283L862.07,377.267L862.057,377.251L862.044,377.235L862.031,377.219L862.018,377.203L862.004,377.187L861.991,377.171L861.977,377.155L861.963,377.139L861.949,377.123L861.935,377.107L861.92,377.092L861.906,377.076L861.891,377.06L861.876,377.045L861.861,377.029L861.846,377.014L861.83,376.998L861.815,376.983L861.799,376.967L861.783,376.952L861.767,376.937L861.751,376.921L861.735,376.906L861.718,376.891L861.701,376.876L861.684,376.861L861.667,376.846L861.65,376.831L861.633,376.816L861.615,376.801L861.598,376.786L861.58,376.771L861.562,376.756L861.544,376.742L861.526,376.727L861.507,376.712L861.489,376.698L861.47,376.683L861.451,376.669L861.432,376.654L861.413,376.64L861.393,376.626L861.374,376.611L861.354,376.597L861.334,376.583L861.315,376.569L861.295,376.555L861.254,376.527L861.213,376.499L861.171,376.471L861.128,376.444L861.085,376.417L861.042,376.39L860.997,376.363L860.953,376.336L860.907,376.31L860.861,376.283L860.815,376.257L860.768,376.232L860.72,376.206L860.672,376.181L860.624,376.155L860.575,376.13L860.525,376.106L860.481,376.084L860.475,376.081L860.424,376.057L860.372,376.032L860.321,376.008L860.268,375.985L860.215,375.961L860.162,375.938L860.108,375.915L860.054,375.892L859.999,375.869L859.944,375.847L859.888,375.824L859.832,375.802L859.775,375.781L859.717,375.759L859.66,375.738L859.602,375.717L859.543,375.696L859.484,375.675L859.424,375.654L859.364,375.634L859.304,375.614L859.243,375.594L859.181,375.575L859.12,375.555L859.057,375.536L858.995,375.517L858.932,375.499L858.868,375.48L858.804,375.462L858.74,375.444L858.675,375.426L858.61,375.409L858.545,375.391L858.479,375.374L858.412,375.357L858.346,375.341L858.279,375.324L858.211,375.308L858.143,375.292L858.075,375.276L858.007,375.261L857.938,375.245L857.868,375.23L857.799,375.215L857.729,375.201L857.659,375.186L857.588,375.172L857.517,375.158L857.446,375.145L857.374,375.131L857.302,375.118L857.23,375.105L857.157,375.092L857.084,375.08L857.011,375.067L856.937,375.055L856.863,375.043L856.789,375.032L856.715,375.02L856.64,375.009L856.565,374.998L856.49,374.988L856.414,374.977L856.339,374.967L856.262,374.957L856.186,374.947L856.109,374.938L856.033,374.929L855.955,374.92L855.878,374.911L855.8,374.902L855.723,374.894L855.644,374.886L855.566,374.878L855.488,374.87L855.409,374.863L855.33,374.856L855.25,374.849L855.171,374.842L855.091,374.836L855.012,374.829L854.932,374.823L854.851,374.818L854.771,374.812L854.69,374.807L854.609,374.802L854.528,374.797L854.447,374.792L854.366,374.788L854.284,374.784L854.203,374.78L854.121,374.776L854.039,374.773L853.957,374.77L853.874,374.767L853.792,374.764L853.784,374.764L853.709,374.762L853.627,374.759L853.544,374.757L853.461,374.756L853.378,374.754L853.294,374.753L853.211,374.752L853.128,374.751L853.044,374.75L852.96,374.75L852.877,374.75L852.793,374.75L852.709,374.75L852.625,374.751L852.541,374.751L852.456,374.752L852.372,374.754L852.288,374.755L852.203,374.757L852.119,374.759L852.034,374.761L851.949,374.764L851.865,374.767L851.78,374.769L851.695,374.773L851.61,374.776L851.526,374.78L851.441,374.784L851.356,374.788L851.271,374.792L851.186,374.797L851.101,374.802L851.016,374.807L850.931,374.812L850.846,374.818L850.761,374.824L850.676,374.83L850.676,374.83L850.591,374.836L850.506,374.843L850.421,374.849L850.336,374.856L850.251,374.864L850.166,374.871L850.081,374.879L849.996,374.887L849.911,374.895L849.826,374.903L849.741,374.912L849.657,374.921L849.572,374.93L849.487,374.939L849.403,374.949L849.318,374.959L849.234,374.969L849.15,374.979L849.065,374.99L848.981,375.001L848.897,375.012L848.813,375.023L848.729,375.035L848.645,375.046L848.562,375.058L848.478,375.071L848.394,375.083L848.311,375.096L848.228,375.109L848.191,375.115L848.144,375.122L848.061,375.135L847.978,375.149L847.896,375.163L847.813,375.177L847.73,375.191L847.648,375.206L847.566,375.22L847.484,375.236L847.402,375.251L847.32,375.266L847.238,375.282L847.157,375.298L847.075,375.314L846.994,375.331L846.913,375.348L846.833,375.365L846.752,375.382L846.672,375.399L846.592,375.417L846.512,375.435L846.454,375.448L846.432,375.453L846.352,375.471L846.273,375.49L846.194,375.509L846.115,375.528L846.036,375.547L845.957,375.567L845.879,375.586L845.801,375.606L845.723,375.627L845.646,375.647L845.568,375.668L845.491,375.689L845.414,375.71L845.338,375.732L845.261,375.753L845.185,375.775L845.11,375.798L845.034,375.82L844.959,375.843L844.884,375.866L844.809,375.889L844.735,375.913L844.661,375.936L844.659,375.937L844.587,375.96L844.513,375.984L844.44,376.009L844.367,376.033L844.295,376.058L844.222,376.083L844.15,376.108L844.079,376.134L844.007,376.16L843.936,376.186L843.866,376.212L843.795,376.239L843.725,376.265L843.656,376.292L843.587,376.32L843.518,376.347L843.449,376.375L843.381,376.403L843.313,376.431L843.246,376.46L843.179,376.489L843.112,376.518L843.046,376.547L842.98,376.576L842.914,376.606L842.849,376.636L842.784,376.666L842.72,376.697L842.656,376.728L842.593,376.759L842.53,376.79L842.467,376.821L842.405,376.853L842.343,376.885L842.282,376.917L842.221,376.95L842.16,376.982L842.1,377.015L842.04,377.048L841.981,377.082L841.923,377.115L841.864,377.149L841.807,377.183L841.749,377.218L841.692,377.252L841.636,377.287L841.58,377.322L841.525,377.358L841.47,377.393L841.415,377.429L841.361,377.465L841.308,377.502L841.302,377.506L841.255,377.538L841.203,377.575L841.151,377.612L841.099,377.649L841.048,377.686L840.998,377.724L840.948,377.762L840.923,377.781L840.899,377.8L840.874,377.819L840.85,377.838L840.826,377.858L840.801,377.877L840.777,377.896L840.754,377.916L840.73,377.935L840.706,377.955L840.683,377.975L840.66,377.994L840.637,378.014L840.614,378.034L840.591,378.054L840.568,378.074L840.546,378.094L840.523,378.114L840.501,378.134L840.479,378.154L840.457,378.174L840.435,378.194L840.413,378.215L840.391,378.235L840.37,378.256L840.349,378.276L840.328,378.297L840.307,378.317L840.286,378.338L840.265,378.359L840.244,378.379L840.224,378.4L840.204,378.421L840.184,378.442L840.164,378.463L840.144,378.484L840.124,378.505L840.104,378.527L840.085,378.548L840.066,378.569L840.047,378.591L840.028,378.612L840.009,378.634L839.99,378.655L839.972,378.677L839.953,378.698L839.935,378.72L839.917,378.742L839.899,378.764L839.882,378.786L839.864,378.808L839.847,378.83L839.829,378.852L839.812,378.874L839.795,378.896L839.778,378.918L839.762,378.94L839.745,378.963L839.729,378.985L839.713,379.008L839.697,379.03L839.681,379.053L839.665,379.075L839.65,379.098L839.634,379.121L839.619,379.144L839.604,379.167L839.589,379.189L839.574,379.212L839.56,379.235L839.545,379.259L839.531,379.282L839.517,379.305L839.503,379.328L839.489,379.352L839.475,379.375L839.462,379.398L839.449,379.422L839.436,379.445L839.423,379.469L839.41,379.493L839.397,379.516L839.385,379.54L839.372,379.564L839.36,379.588L839.348,379.612L839.336,379.636L839.325,379.66L839.313,379.684L839.302,379.708L839.291,379.733L839.28,379.757L839.269,379.781L839.258,379.806L839.248,379.83L839.238,379.855L839.227,379.879L839.217,379.904L839.208,379.929L839.207,379.931L839.198,379.954L839.189,379.978L839.179,380.003L839.17,380.028L839.161,380.053L839.152,380.078L839.144,380.103L839.135,380.129L839.127,380.154L839.119,380.179L839.111,380.205L839.103,380.23L839.096,380.256L839.088,380.281L839.081,380.307L839.074,380.333L839.067,380.358L839.06,380.384L839.054,380.41L839.048,380.436L839.041,380.462L839.035,380.488L839.03,380.514L839.024,380.541L839.019,380.567L839.013,380.593L839.008,380.62L839.003,380.646L838.999,380.673L838.994,380.699L838.99,380.726L838.986,380.753L838.982,380.78L838.978,380.806L838.974,380.833L838.971,380.86L838.967,380.888L838.964,380.915L838.961,380.942L838.959,380.969L838.956,380.997L838.954,381.024L838.952,381.052L838.95,381.079L838.948,381.107L838.947,381.134L838.945,381.162L838.944,381.19L838.943,381.218L838.942,381.246L838.942,381.274L838.941,381.302L838.941,381.331L838.941,381.359L838.941,381.387L838.941,381.416L838.942,381.444L838.943,381.473L838.944,381.501L838.945,381.53L838.946,381.559L838.948,381.588L838.95,381.617L838.952,381.646L838.954,381.675L838.956,381.704L838.959,381.733L838.961,381.763L838.964,381.792L838.967,381.822L838.971,381.851L838.974,381.881L838.978,381.91L838.982,381.94L838.986,381.97L838.992,382.009L838.995,382.03L839,382.06L839.005,382.09L839.01,382.121L839.016,382.152L838.876,382.372L838.668,382.224L838.661,382.192L838.655,382.159L838.65,382.127L838.644,382.094L838.64,382.072L838.639,382.062L838.634,382.029L838.629,381.997L838.624,381.965L838.62,381.932L838.615,381.9L838.611,381.868L838.607,381.836L838.604,381.804L838.6,381.772L838.597,381.74L838.594,381.708L838.592,381.677L838.589,381.645L838.587,381.613L838.585,381.582L838.583,381.55L838.581,381.519L838.58,381.487L838.579,381.456L838.578,381.425L838.577,381.393L838.577,381.362L838.576,381.331L838.576,381.3L838.576,381.269L838.577,381.238L838.577,381.207L838.578,381.177L838.579,381.146L838.58,381.115L838.581,381.085L838.583,381.054L838.585,381.024L838.587,380.993L838.589,380.963L838.592,380.933L838.594,380.902L838.597,380.872L838.6,380.842L838.603,380.812L838.607,380.782L838.611,380.752L838.614,380.722L838.619,380.693L838.623,380.663L838.627,380.633L838.632,380.604L838.637,380.574L838.642,380.545L838.647,380.515L838.653,380.486L838.659,380.457L838.664,380.428L838.671,380.399L838.677,380.369L838.683,380.341L838.69,380.312L838.697,380.283L838.704,380.254L838.711,380.225L838.719,380.197L838.727,380.168L838.735,380.14L838.743,380.111L838.751,380.083L838.759,380.055L838.768,380.027L838.777,379.998L838.786,379.97L838.795,379.942L838.805,379.914L838.814,379.887L838.824,379.859L838.834,379.831L838.844,379.803L838.854,379.779L838.855,379.776L838.865,379.748L838.876,379.721L838.887,379.694L838.898,379.666L838.909,379.639L838.921,379.612L838.933,379.585L838.944,379.558L838.956,379.531L838.969,379.504L838.981,379.478L838.994,379.451L839.006,379.424L839.019,379.398L839.033,379.371L839.046,379.345L839.059,379.319L839.073,379.293L839.087,379.266L839.101,379.24L839.115,379.214L839.129,379.188L839.144,379.163L839.159,379.137L839.173,379.111L839.188,379.085L839.204,379.06L839.219,379.034L839.235,379.009L839.25,378.984L839.266,378.958L839.282,378.933L839.298,378.908L839.315,378.883L839.331,378.858L839.348,378.833L839.365,378.808L839.382,378.783L839.399,378.759L839.417,378.734L839.434,378.71L839.452,378.685L839.47,378.661L839.488,378.637L839.506,378.612L839.524,378.588L839.542,378.564L839.561,378.54L839.58,378.516L839.599,378.492L839.618,378.469L839.637,378.445L839.657,378.421L839.676,378.398L839.696,378.374L839.716,378.351L839.736,378.327L839.756,378.304L839.776,378.281L839.797,378.258L839.817,378.235L839.838,378.212L839.859,378.189L839.88,378.166L839.901,378.143L839.923,378.12L839.944,378.098L839.966,378.075L839.988,378.053L840.01,378.03L840.032,378.008L840.054,377.986L840.076,377.964L840.099,377.942L840.121,377.92L840.144,377.898L840.167,377.876L840.19,377.854L840.213,377.832L840.237,377.81L840.26,377.789L840.284,377.767L840.308,377.746L840.331,377.724L840.356,377.703L840.38,377.682L840.404,377.661L840.428,377.639L840.453,377.618L840.478,377.597L840.503,377.577L840.528,377.556L840.553,377.535L840.578,377.514L840.603,377.494L840.629,377.473L840.654,377.453L840.68,377.432L840.706,377.412L840.758,377.371L840.811,377.331L840.864,377.291L840.918,377.252L840.972,377.212L841.027,377.173L841.075,377.139L841.082,377.134L841.138,377.096L841.194,377.058L841.25,377.02L841.308,376.982L841.365,376.945L841.423,376.908L841.482,376.871L841.541,376.835L841.6,376.798L841.66,376.762L841.72,376.727L841.781,376.691L841.842,376.656L841.904,376.621L841.966,376.587L842.029,376.552L842.092,376.518L842.155,376.484L842.219,376.451L842.283,376.418L842.348,376.384L842.413,376.352L842.478,376.319L842.544,376.287L842.61,376.255L842.677,376.223L842.744,376.192L842.811,376.161L842.879,376.13L842.947,376.099L843.015,376.069L843.084,376.039L843.153,376.009L843.223,375.979L843.293,375.95L843.363,375.921L843.434,375.892L843.505,375.864L843.576,375.835L843.647,375.807L843.719,375.78L843.792,375.752L843.864,375.725L843.937,375.698L844.01,375.671L844.084,375.645L844.158,375.618L844.232,375.592L844.307,375.567L844.381,375.541L844.456,375.516L844.53,375.492L844.532,375.491L844.607,375.467L844.683,375.442L844.76,375.418L844.836,375.395L844.913,375.371L844.99,375.348L845.067,375.325L845.145,375.302L845.223,375.28L845.301,375.257L845.379,375.235L845.458,375.214L845.537,375.192L845.616,375.171L845.695,375.15L845.774,375.129L845.854,375.109L845.934,375.089L846.014,375.069L846.095,375.049L846.175,375.03L846.256,375.011L846.337,374.992L846.36,374.986L846.418,374.973L846.5,374.955L846.581,374.937L846.663,374.919L846.745,374.901L846.827,374.884L846.91,374.867L846.992,374.85L847.075,374.834L847.158,374.818L847.241,374.802L847.324,374.786L847.407,374.77L847.49,374.755L847.574,374.74L847.658,374.725L847.742,374.711L847.826,374.697L847.91,374.683L847.994,374.669L848.078,374.655L848.126,374.648L848.163,374.642L848.248,374.629L848.332,374.617L848.417,374.604L848.502,374.592L848.587,374.58L848.672,374.569L848.757,374.558L848.843,374.547L848.928,374.536L849.014,374.525L849.099,374.515L849.185,374.505L849.27,374.495L849.356,374.485L849.442,374.476L849.528,374.467L849.614,374.458L849.7,374.449L849.786,374.441L849.872,374.433L849.958,374.425L850.044,374.417L850.13,374.41L850.216,374.403L850.302,374.396L850.389,374.389L850.475,374.383L850.561,374.377L850.647,374.371L850.648,374.371L850.733,374.365L850.82,374.36L850.906,374.355Z" style="fill:rgb(31,137,212);"/>
            </g>
        </g>
    </g>
</svg>
